<svg xmlns="http://www.w3.org/2000/svg" viewBox="0 0 320 480" width="320" height="480">
  <rect width="320" height="480" fill="#fdfaf3"></rect>
  <path d="M0,12 L8,4 L20,10 L32,2 L46,10 L60,4 L74,10 L90,2 L104,10 L118,4 L132,10 L148,2 L162,10 L176,4 L190,10 L204,2 L218,10 L232,4 L246,10 L260,2 L274,10 L288,4 L300,10 L312,2 L320,8" fill="none" stroke="#0e0a06" stroke-width="0.4"></path>
  <line x1="0" y1="468" x2="320" y2="468" stroke="#0e0a06" stroke-width="0.4" stroke-dasharray="3 3"></line>

  <g font-family="JetBrains Mono, monospace" fill="#0e0a06">
    <text x="160" y="48" text-anchor="middle" font-size="11" letter-spacing="3">RETILO · SIGNALS</text>
    <text x="160" y="68" text-anchor="middle" font-family="Instrument Serif, serif" font-style="italic" font-size="20">The week ahead.</text>
    <line x1="40" y1="92" x2="280" y2="92" stroke="#0e0a06" stroke-width="0.5" stroke-dasharray="2 3"></line>

    
    <g transform="translate(40, 116)">
      <text font-size="9" letter-spacing="2" fill="#8a7a6a">SEARCHES · BIRYANI</text>
      <text x="200" y="0" font-size="11" fill="#1e6b56">+42%</text>
      <rect y="6" width="240" height="6" fill="#e0d5c0"></rect>
      <rect y="6" width="180" height="6" fill="#c8543d"></rect>
    </g>

    <g transform="translate(40, 154)">
      <text font-size="9" letter-spacing="2" fill="#8a7a6a">WEATHER · RAIN FRI</text>
      <text x="200" y="0" font-size="11" fill="#1e6b56">+18%</text>
      <rect y="6" width="240" height="6" fill="#e0d5c0"></rect>
      <rect y="6" width="120" height="6" fill="#d99a3a"></rect>
    </g>

    <g transform="translate(40, 192)">
      <text font-size="9" letter-spacing="2" fill="#8a7a6a">PAYDAY · 28TH</text>
      <text x="200" y="0" font-size="11" fill="#1e6b56">+35%</text>
      <rect y="6" width="240" height="6" fill="#e0d5c0"></rect>
      <rect y="6" width="160" height="6" fill="#1e6b56"></rect>
    </g>

    <g transform="translate(40, 230)">
      <text font-size="9" letter-spacing="2" fill="#8a7a6a">EVENT · CRICKET FINAL</text>
      <text x="200" y="0" font-size="11" fill="#1e6b56">+62%</text>
      <rect y="6" width="240" height="6" fill="#e0d5c0"></rect>
      <rect y="6" width="220" height="6" fill="#0e0a06"></rect>
    </g>

    <line x1="40" y1="280" x2="280" y2="280" stroke="#0e0a06" stroke-width="0.5" stroke-dasharray="2 3"></line>

    <text x="160" y="312" text-anchor="middle" font-size="9" letter-spacing="2" fill="#8a7a6a">FORECAST · NEXT 7 DAYS</text>
    <text x="160" y="346" text-anchor="middle" font-family="Instrument Serif, serif" font-style="italic" font-size="22">Stock 3× Friday.</text>
    <text x="160" y="372" text-anchor="middle" font-family="Instrument Serif, serif" font-style="italic" font-size="14">Hire one more for Sunday.</text>

    <text x="160" y="420" text-anchor="middle" font-size="9" letter-spacing="2" fill="#c8543d">CONFIDENCE · 84%</text>
    <text x="160" y="448" text-anchor="middle" font-family="Instrument Serif, serif" font-style="italic" font-size="11" fill="#5a4a3c">— prediction held last 6 wks —</text>
  </g>
</svg>