<svg xmlns="http://www.w3.org/2000/svg" viewBox="0 0 200 200">
  <!-- Retilo fox logo — teal sitting fox -->

  <!-- Body + head silhouette -->
  <path fill="oklch(0.58 0.24 350)" d="
    M 112 20
    C 120 14 130 20 128 33
    C 127 42 124 50 127 57
    C 132 63 137 72 137 83
    C 137 94 131 103 124 109
    C 126 112 127 115 126 117
    C 116 115 104 114 94 117
    C 84 120 74 127 68 137
    C 62 148 62 161 68 170
    C 58 167 49 160 46 150
    C 43 140 47 129 54 123
    C 50 114 48 103 50 93
    C 52 82 58 73 64 67
    C 61 60 58 51 58 42
    C 58 29 66 18 76 16
    C 79 15 82 16 82 21
    C 83 26 81 31 79 35
    C 84 27 91 19 99 17
    C 106 15 111 18 112 20 Z
  "/>

  <!-- Tail — sweeps from rump, arcs right/down/left under body -->
  <path fill="oklch(0.58 0.24 350)" d="
    M 124 109
    C 138 107 153 114 161 127
    C 169 140 169 158 161 170
    C 153 182 138 188 122 187
    C 107 186 93 180 83 170
    C 88 172 95 175 103 175
    C 118 175 134 170 143 160
    C 152 150 152 135 143 125
    C 138 119 131 114 124 112 Z
  "/>

  <!-- White chest marking (belly fur gap) -->
  <path fill="white" d="
    M 96 86
    C 104 78 118 80 122 93
    C 126 106 119 121 108 123
    C 97 125 87 115 87 102
    C 87 91 91 88 96 86 Z
  "/>

  <!-- White eye -->
  <circle fill="white" cx="112" cy="52" r="4"/>
</svg>
