<svg xmlns="http://www.w3.org/2000/svg" viewBox="0 0 200 200">
  <!-- App-color badge background -->
  <rect width="200" height="200" rx="44" fill="oklch(0.58 0.24 350)"/>

  <!-- White fox body + head -->
  <path fill="white" d="
    M 112 28
    C 120 22 130 28 128 41
    C 127 50 124 58 127 65
    C 132 71 137 80 137 91
    C 137 102 131 111 124 117
    C 126 120 127 123 126 125
    C 116 123 104 122 94 125
    C 84 128 74 135 68 145
    C 62 156 62 169 68 178
    C 58 175 49 168 46 158
    C 43 148 47 137 54 131
    C 50 122 48 111 50 101
    C 52 90 58 81 64 75
    C 61 68 58 59 58 50
    C 58 37 66 26 76 24
    C 79 23 82 24 82 29
    C 83 34 81 39 79 43
    C 84 35 91 27 99 25
    C 106 23 111 26 112 28 Z
  "/>

  <!-- White tail -->
  <path fill="white" d="
    M 124 117
    C 138 115 153 122 161 135
    C 169 148 169 166 161 178
    C 153 190 138 196 122 195
    C 107 194 93 188 83 178
    C 88 180 95 183 103 183
    C 118 183 134 178 143 168
    C 152 158 152 143 143 133
    C 138 127 131 122 124 120 Z
  "/>

  <!-- App-color chest marking (shows background through) -->
  <path fill="oklch(0.58 0.24 350)" d="
    M 96 94
    C 104 86 118 88 122 101
    C 126 114 119 129 108 131
    C 97 133 87 123 87 110
    C 87 99 91 96 96 94 Z
  "/>

  <!-- App-color eye -->
  <circle fill="oklch(0.58 0.24 350)" cx="112" cy="60" r="4.5"/>
</svg>
